<?xml version="1.0" encoding="UTF-8"?>
<svg width="51px" height="54px" viewBox="0 0 51 54" version="1.1" xmlns="http://www.w3.org/2000/svg" xmlns:xlink="http://www.w3.org/1999/xlink">
    <!-- Generator: Sketch 62 (91390) - https://sketch.com -->
    <title>Path</title>
    <desc>Created with Sketch.</desc>
    <g id="Page-1" stroke="none" stroke-width="1" fill="none" fill-rule="evenodd">
        <g id="iPhone-8" transform="translate(-74.000000, -646.000000)" fill="#FF6900" fill-rule="nonzero">
            <g id="Group-16" transform="translate(39.000000, 606.000000)">
                <g id="Group-11">
                    <path d="M45.5997847,94 C43.6414741,94 42.5684272,93.5098336 42.0050776,93.183056 C41.2002924,92.6928896 39.724853,91.494705 38.4103705,87.9273828 C36.0814174,81.2207069 34.9283348,74.1516027 35.0034467,67.0408472 L35.0034467,67.0136157 C35.057099,58.7897126 36.3179291,51.7912254 38.4103705,46.0726172 C39.7785053,42.5325265 41.2002924,41.279879 42.0050776,40.816944 C42.5684272,40.4629349 43.6414741,40 45.5729585,40 C46.3240913,40 47.1825288,40.0816944 48.2019234,40.2450832 C54.0768551,41.225416 60.5419626,43.5945537 67.5167674,47.6520424 C73.5598593,51.1594409 78.9378602,55.7334094 83.3978613,61.1588502 C85.7317383,64.1543116 86,66.0605144 86,66.9863843 C86,67.9394856 85.7317383,69.8456884 83.3978613,72.8139183 C78.9382684,78.2397727 73.5601889,82.8138081 67.5167674,86.3207262 L67.4899412,86.3207262 C61.5530299,89.9554398 55.0191758,92.4737866 48.2019234,93.7549168 C47.1825288,93.9183056 46.3240913,93.9727685 45.5997847,93.9727685" id="Path"></path>
                </g>
            </g>
        </g>
    </g>
</svg>