<?xml version="1.0" encoding="UTF-8"?>
<svg width="182px" height="37px" viewBox="0 0 182 37" version="1.1" xmlns="http://www.w3.org/2000/svg" xmlns:xlink="http://www.w3.org/1999/xlink">
    <!-- Generator: Sketch 62 (91390) - https://sketch.com -->
    <title>zalando</title>
    <desc>Created with Sketch.</desc>
    <g id="Page-1" stroke="none" stroke-width="1" fill="none" fill-rule="evenodd">
        <g id="side-option-1" transform="translate(-487.000000, -105.000000)" fill-rule="nonzero">
            <g id="zalando" transform="translate(487.000000, 105.000000)">
                <path d="M79.8817033,8.71523579 C78.5684631,7.96553809 76.5893546,7.60943168 73.8703925,7.60943168 C70.1526281,7.60943168 66.6938124,8.41535671 65.3990685,8.92140266 C65.0434101,9.01823329 64.7896028,9.33593161 64.7701929,9.70858525 L64.7701929,9.8210399 L65.1401198,11.7140266 L65.1401198,11.7515115 C65.2695941,12.1263603 65.5840319,12.3137848 65.8799734,12.3137848 L66.1019295,12.2762999 L66.7123087,12.1263603 C68.3399867,11.7140266 70.7815037,11.0767836 73.5189621,11.0767836 C75.1836327,11.0767836 76.2934132,11.2267231 77.0332668,11.5453446 C78.2540253,12.0326481 78.2725216,12.8385732 78.291018,14.1692866 L78.291018,16.1747279 L77.5511643,16.1747279 C76.2009315,16.1747279 73.5744511,16.2309553 70.9849634,16.6620314 C67.0267465,17.280532 63.7713906,18.2551391 63.7713906,23.8591294 C63.7713906,30.9812576 70.1896208,30.9812576 73.2785096,31 C75.3685961,31 77.2922156,30.6813785 78.5684631,30.4189843 C81.4353959,29.7255139 82.1752495,28.7883918 82.1382568,25.8458283 L82.1382568,14.0006046 C82.1382568,12.2013301 82.1382568,9.952237 79.8817033,8.71523579 Z M78.3095143,27.0078597 C76.6948432,27.5255539 75.0089441,27.7786399 73.3155023,27.7575574 L73.3155023,27.9449819 L73.3155023,27.7575574 C70.4855622,27.7575574 67.7111111,27.4201935 67.7111111,23.6904474 C67.7111111,20.7291415 69.2648037,20.3730351 71.2069195,19.9419589 L71.3363939,19.904474 C73.0565536,19.5296252 77.4031936,19.4546554 78.3095143,19.4359129 L78.3095143,27.0078597 Z M114.192415,14.0006046 L114.192415,25.8458283 C114.247904,28.7883918 113.508051,29.7255139 110.622621,30.4002418 C109.36487,30.6813785 107.441251,31 105.351164,31 C102.262275,31 95.8439668,30.9812576 95.8439668,23.8591294 C95.8255489,18.2551391 99.0809049,17.280532 103.057618,16.6620314 C105.647106,16.2309553 108.273586,16.1559855 109.605323,16.1559855 L110.345176,16.1559855 L110.345176,14.188029 C110.345176,12.8573156 110.32668,12.0513906 109.105921,11.5640871 C108.366068,11.2454655 107.256287,11.095526 105.591617,11.095526 C102.854158,11.095526 100.412641,11.732769 98.7849634,12.1451028 L98.1560878,12.2950423 C97.9622868,12.3584314 97.7512699,12.3380718 97.5727571,12.2387608 C97.3942443,12.1394498 97.2640224,11.9699698 97.2127745,11.7702539 L97.2127745,11.732769 L96.8428476,9.83978235 L96.8428476,9.72732769 C96.8428476,9.29625151 97.1572854,9.01511487 97.4532269,8.92140266 C98.7664671,8.43409915 102.225283,7.62817412 105.943047,7.62817412 C108.662009,7.62817412 110.622621,8.00302297 111.954358,8.75272068 C114.210912,9.97097944 114.210912,12.2200726 114.192415,14.019347 L114.192415,14.0006046 Z M110.382169,19.4359129 C109.457352,19.4359129 105.129208,19.5296252 103.409049,19.904474 L103.261078,19.9419589 C101.318962,20.3730351 99.7837658,20.7291415 99.7652695,23.6904474 C99.7652695,27.4201935 102.539721,27.7575574 105.388157,27.7762999 L105.388157,27.9449819 L105.388157,27.7575574 C107.081599,27.7786399 108.767498,27.5255539 110.382169,27.0078597 L110.382169,19.4359129 L110.382169,19.4359129 Z M172.289421,7.60943168 C163.355689,7.60943168 162.597339,13.6632406 162.597339,19.3234583 C162.597339,24.9649335 163.355689,30.9812576 172.289421,31 C181.223154,30.9812576 181.981504,24.9836759 182,19.3234583 C182,13.4008464 181.223154,7.62817412 172.289421,7.60943168 Z M172.289421,27.6825877 C166.869993,27.6825877 166.592548,24.7962515 166.555556,19.3234583 C166.611045,13.8131802 166.869993,10.9455865 172.289421,10.9081016 C177.708849,10.9455865 177.986294,13.8131802 178.023287,19.3234583 C177.986294,24.7962515 177.708849,27.6638452 172.289421,27.6825877 Z M156.253094,30.1565901 L156.031138,30.2315599 C154.773387,30.5501814 153.071723,30.9812576 150.05682,30.9812576 C141.788955,30.9812576 140.161277,26.6892382 140.161277,19.2859734 C140.161277,10.7769045 142.787758,7.62817412 149.816367,7.60943168 C152.294877,7.60943168 154.015037,7.94679565 155.235795,8.24667473 L155.235795,1.40568319 C155.217299,1.10580411 155.346773,0.712212817 156.031138,0.581015719 L158.232202,0 L158.361677,0 C158.861078,0 159.046041,0.468561064 159.046041,0.862152358 L159.046041,26.5767836 C159.064538,28.2073761 158.879574,29.5943168 156.27159,30.1565901 L156.253094,30.1565901 Z M155.217299,11.5453446 C154.477445,11.3579202 152.442848,10.8706167 150.130805,10.8706167 C145.913639,10.9081016 144.119494,12.0888755 144.082502,19.3234583 C144.137991,27.2702539 146.431537,27.7013301 150.186294,27.738815 L150.186294,27.907497 L150.186294,27.7200726 C152.516833,27.7200726 154.514438,27.232769 155.217299,27.0266022 L155.217299,11.5453446 Z M135.5002,30.4564692 L133.539587,30.4564692 C133.028825,30.4564692 132.61477,30.0369053 132.61477,29.519347 L132.61477,14.2255139 C132.577778,11.6577993 131.819428,10.926844 129.100466,10.8893591 C126.067066,10.8893591 122.959681,11.6765417 121.942382,11.9764208 L121.942382,29.4818622 C121.942382,30.0441354 121.572455,30.4377267 121.073054,30.4377267 L119.056953,30.4377267 C118.54619,30.4377267 118.132136,30.0181629 118.132136,29.5006046 L118.132136,12.3887545 C118.113639,10.8143894 118.243114,9.72732769 120.444178,8.99637243 C122.534265,8.24667473 126.547971,7.60943168 129.192947,7.60943168 C134.242448,7.60943168 136.40652,9.48367594 136.40652,13.8881499 L136.40652,29.519347 C136.40652,30.0369053 135.992466,30.4564692 135.481703,30.4564692 L135.5002,30.4564692 Z M90.998004,30.8688029 C92.1447771,30.8500605 92.9771124,30.6251511 93.2915502,30.2315599 C93.4035717,30.1174368 93.4638518,29.9613379 93.4580173,29.8004837 C93.4580173,29.6692866 93.4580173,29.6692866 93.1435795,28.1698912 L93.1435795,28.1324063 C93.0510978,27.7575574 92.792149,27.570133 92.5701929,27.570133 L91.97831,27.570133 C91.1644711,27.5513906 90.4986028,27.4201935 90.4986028,26.2206771 L90.4986028,0.862152358 C90.4986028,0.449818622 90.239654,0 89.7587492,0 L89.6292748,0 L87.4097139,0.581015719 C87.0397871,0.618500605 86.6698603,0.899637243 86.6698603,1.40568319 L86.6698603,26.2956469 C86.6698603,29.2382104 88.2235529,30.8688029 90.998004,30.8688029 L90.998004,30.8688029 Z M59.9241517,30.4564692 L44.1652695,30.4564692 C43.6545071,30.4564692 43.2404524,30.0369053 43.2404524,29.519347 L43.2404524,27.5326481 C43.2404524,27.0453446 43.3884232,26.8204353 43.6843646,26.4455865 L56.2248836,11.4516324 L43.924817,11.4516324 C43.4140547,11.4516324 43,11.0320685 43,10.5145103 L43,9.09008464 C43,8.54655381 43.4069195,8.15296252 43.924817,8.15296252 L59.8501663,8.15296252 C60.3865602,8.15296252 60.7749834,8.56529625 60.7749834,9.09008464 L60.7749834,11.1142684 C60.7749834,11.4891173 60.6640053,11.7889964 60.3865602,12.1263603 L47.8090486,27.1577993 L59.942648,27.1577993 C60.4605456,27.1577993 60.8674651,27.570133 60.8674651,28.0949214 L60.8674651,29.519347 C60.8674651,30.0369053 60.4534104,30.4564692 59.942648,30.4564692 L59.9241517,30.4564692 Z" id="Shape" fill="#1D1D1B"></path>
                <path d="M7.27436204,37 C5.93042341,37 5.19401869,36.6641452 4.8074062,36.4402421 C4.25510266,36.1043873 3.24254616,35.283409 2.34045037,32.8391326 C0.742149178,28.2438177 -0.0491819863,23.4001722 0.00236536231,18.5279879 L0.00236536231,18.5093293 C0.0391855986,12.8744327 0.904461153,8.07917297 2.34045037,4.16086737 C3.2793664,1.73524962 4.25510266,0.87695411 4.8074062,0.559757943 C5.19401869,0.317196167 5.93042341,0 7.25595192,0 C7.77143523,0 8.36055901,0.0559757943 9.0601435,0.167927383 C13.0919594,0.839636914 17.5287979,2.46293495 22.3154286,5.24306606 C26.4626485,7.64628355 30.1534334,10.7802991 33.2142185,14.4977307 C34.8158988,16.5501765 35,17.8562784 35,18.4906707 C35,19.1437216 34.8158988,20.4498235 33.2142185,22.4836107 C30.1537136,26.2013257 26.4628747,29.335387 22.3154286,31.7382753 L22.2970185,31.7382753 C18.2226676,34.2287273 13.7386501,35.9542612 9.0601435,36.8320726 C8.36055901,36.9440242 7.77143523,36.9813414 7.27436204,36.9813414" id="Path" fill="#FF6900"></path>
            </g>
        </g>
    </g>
</svg>